<svg width="125" height="28" viewBox="0 0 125 28" fill="none" xmlns="http://www.w3.org/2000/svg">
<path fill-rule="evenodd" clip-rule="evenodd" d="M104.314 4.30811V17.2269H106.462V21.5445H104.935C103.203 21.5445 101.684 20.6532 100.8 19.3065C99.3434 20.6897 97.4172 21.5421 95.2961 21.5421C90.7666 21.5421 87.0919 17.6896 87.0919 12.936C87.0919 8.18252 90.7642 4.33003 95.2961 4.33003C97.0446 4.33003 98.6616 4.90717 99.9912 5.88368V4.30811H104.314ZM91.4046 12.9336C91.4046 15.3055 93.326 17.2269 95.6979 17.2269C98.0698 17.2269 99.9912 15.3055 99.9912 12.9336C99.9912 10.5617 98.0698 8.64034 95.6979 8.64034C93.326 8.64034 91.4046 10.5617 91.4046 12.9336ZM76.864 4.30822C72.1105 4.30822 68.2458 8.17532 68.2458 12.9264V28.0003H72.561V20.383C73.8298 21.1184 75.2958 21.5446 76.864 21.5446C81.6176 21.5446 85.4822 17.6775 85.4822 12.9264C85.4822 8.17532 81.6151 4.30822 76.864 4.30822ZM76.864 17.2294C74.4921 17.2294 72.561 15.2983 72.561 12.9264C72.561 10.5545 74.4921 8.6234 76.864 8.6234C79.2359 8.6234 81.1671 10.5545 81.1671 12.9264C81.1671 15.2983 79.2384 17.2294 76.864 17.2294ZM119.563 4.31303L114.973 15.0206L110.614 4.31303H105.953L112.584 20.5997L109.411 28.0003H114.108L124.26 4.31303H119.563Z" fill="#00CF6A"/>
<path fill-rule="evenodd" clip-rule="evenodd" d="M17.5863 1.22491C17.9637 1.97982 17.8834 2.86867 17.3768 3.54322L7.11487 17.2266H17.8712V21.5418H2.90927C2.06669 21.5418 1.30691 21.0743 0.92945 20.3194C0.551993 19.5644 0.632355 18.6756 1.13888 18.001L11.4033 4.31518H0.644531V0H15.604C16.449 0 17.2088 0.469994 17.5863 1.22491ZM47.8023 12.9262C47.8023 8.1751 51.6694 4.30799 56.4205 4.30799C61.1716 4.30799 65.0387 8.1751 65.0387 12.9262C65.0387 17.6773 61.1716 21.5444 56.4205 21.5444C51.6694 21.5444 47.8023 17.6773 47.8023 12.9262ZM52.1175 12.9262C52.1175 15.2981 54.0486 17.2292 56.4205 17.2292C58.7948 17.2292 60.7235 15.2981 60.7235 12.9262C60.7235 10.5543 58.7948 8.62318 56.4205 8.62318C54.0461 8.62318 52.1175 10.5543 52.1175 12.9262ZM36.7075 17.2268V4.30799H32.385V5.88357C31.0554 4.90705 29.4384 4.32991 27.6899 4.32991C23.158 4.32991 19.4857 8.18241 19.4857 12.9359C19.4857 17.6895 23.1605 21.5419 27.6899 21.5419C29.811 21.5419 31.7373 20.6896 33.1935 19.3064C34.0775 20.6531 35.5971 21.5444 37.3285 21.5444H38.8554V17.2268H36.7075ZM28.0917 17.2268C25.7199 17.2268 23.7985 15.3054 23.7985 12.9335C23.7985 10.5616 25.7199 8.64023 28.0917 8.64023C30.4636 8.64023 32.385 10.5616 32.385 12.9335C32.385 15.3054 30.4636 17.2268 28.0917 17.2268ZM44.8167 17.2218V0H40.4918V16.5935C40.4918 19.3258 42.7054 21.5418 45.4377 21.5418H46.9792V17.2218H44.8167Z" fill="#0033C9"/>
</svg>
